<svg xmlns:inkscape="http://www.inkscape.org/namespaces/inkscape" xmlns:sodipodi="http://sodipodi.sourceforge.net/DTD/sodipodi-0.dtd" xmlns="http://www.w3.org/2000/svg" xmlns:svg="http://www.w3.org/2000/svg" version="1.1" id="svg16" sodipodi:docname="JK.cdr" viewBox="233.07 362.64 145.87 66.73">
  <defs id="defs20"/>
  <sodipodi:namedview id="namedview18" pagecolor="#ffffff" bordercolor="#000000" borderopacity="0.25" inkscape:showpageshadow="2" inkscape:pageopacity="0.0" inkscape:pagecheckerboard="0" inkscape:deskcolor="#d1d1d1" inkscape:document-units="pt"/>
  <g id="Layer1000">
    <g id="Layer1001">
      <path d="m 265.0774,362.6369 -32.0106,17.0874 v 32.8078 l 20.4603,11.4486 0.4951,-7.0059 -14.0253,-7.5184 0.33,-25.802 25.0805,-13.4991 1.8159,0.9929 -0.0412,47.1651 5.6665,-2.9235 -0.1655,-12.7267 9.0994,8.6852 5.5423,-3.6547 -12.2842,-11.4363 12.5597,-11.3214 -5.4451,-3.4174 -8.4977,7.0912 -0.4125,-21.7864 z" style="fill:#00a5b7;fill-rule:evenodd" id="path2"/>
      <path d="m 263.7573,374.0854 -6.1051,3.3321 -0.0825,31.6117 -8.0851,-4.2719 0.0825,-5.5534 -6.4351,-0.2563 v 8.8855 l 14.6027,7.2621 -0.165,10.167 8.2502,4.101 31.3505,-16.0622 -0.0825,-33.4058 -21.2029,-10.936 -0.0825,6.5787 14.9328,7.6893 0.0825,26.4001 -24.9154,13.5844 -2.3101,-1.6233 z" style="fill:#2a4a51;fill-rule:evenodd" id="path4"/>
    </g>
    <g id="Layer1002">
      <g id="Layer1003">
        <path d="m 306.7991,395.6434 c 0,0.9332 -0.1468,1.5999 -0.44,1.9998 -0.4932,0.6798 -1.4397,1.0197 -2.8394,1.0197 h -0.5 v -1.8196 h 0.4464 c 0.8901,0 1.3331,-0.4734 1.3331,-1.4199 v -10.1182 h 1.9999 z" style="fill:#2a4a51;fill-rule:evenodd" id="path7"/>
        <path d="m 321.5565,398.5231 h -2.1894 l -1.8865,-5.9391 -1.0233,2.0596 v 3.8795 h -1.9996 v -13.2179 h 1.9996 v 5.6591 l 2.6096,-5.6591 h 2.1897 l -2.4996,5.0791 z m 14.0777,-8.9388 c 0,1.1067 -0.3265,1.963 -0.9799,2.5697 -0.6531,0.6066 -1.5395,0.9099 -2.6595,0.9099 h -1.5596 v 5.4592 h -2.0996 v -13.2179 h 3.6592 c 1.12,0 2.0064,0.3067 2.6595,0.9198 0.6534,0.6131 0.9799,1.4732 0.9799,2.5795 z m -2.1396,0 v -0.7798 c 0,-0.4665 -0.1366,-0.8597 -0.4098,-1.1797 -0.2733,-0.3201 -0.6367,-0.4799 -1.09,-0.4799 h -1.5596 v 4.0994 h 1.5596 c 0.4533,0 0.8167,-0.1635 1.09,-0.4901 0.2732,-0.3265 0.4098,-0.7166 0.4098,-1.1699 z m 10.5381,5.8391 c 0,0.9865 -0.3166,1.7731 -0.9496,2.3596 -0.6332,0.5868 -1.4499,0.8799 -2.4497,0.8799 -1.0531,0 -1.8864,-0.2733 -2.4996,-0.8198 -0.6531,-0.5865 -0.9799,-1.3932 -0.9799,-2.4197 v -7.0188 c 0,-1.0265 0.3268,-1.8329 0.9799,-2.4197 0.6132,-0.5465 1.4465,-0.8198 2.4996,-0.8198 1.0131,0 1.8329,0.29 2.4596,0.87 0.6265,0.58 0.9397,1.3697 0.9397,2.3695 z m -2.0795,-0.0399 v -6.939 c 0,-0.3999 -0.1301,-0.7398 -0.39,-1.0196 -0.26,-0.28 -0.5899,-0.4201 -0.9899,-0.4201 -0.3999,0 -0.7231,0.1401 -0.9697,0.4201 -0.2466,0.2798 -0.3699,0.6197 -0.3699,1.0196 v 6.939 c 0,0.3999 0.1233,0.7367 0.3699,1.0099 0.2466,0.2733 0.5698,0.4099 0.9697,0.4099 0.4,0 0.7299,-0.1366 0.9899,-0.4099 0.2599,-0.2732 0.39,-0.61 0.39,-1.0099 z m 15.9974,-10.0783 -2.5597,13.2179 h -2.073 l -1.6163,-8.6655 -1.6365,8.6655 h -2.0729 l -2.5597,-13.2179 h 2.0764 l 1.6029,9.1151 1.6799,-9.1151 h 1.7997 l 1.6798,9.1151 1.603,-9.1151 z m 8.1187,13.2179 h -6.1991 v -13.2179 h 6.0191 v 1.8997 h -3.9595 v 3.5193 h 3.0595 v 1.8799 h -3.0595 v 3.9793 h 4.1395 z m 9.4782,0 h -2.1564 l -1.8062,-5.4592 h -1.1565 v 5.4592 h -1.9999 v -13.2179 h 3.2797 c 1.1197,0 2.0064,0.3067 2.6595,0.9198 0.6531,0.6131 0.9799,1.4732 0.9799,2.5795 v 0.7798 c 0,1.52 -0.6001,2.5529 -1.7997,3.0997 z m -2.3398,-8.9388 v -0.7798 c 0,-0.4665 -0.1366,-0.8597 -0.413,-1.1797 -0.2735,-0.3201 -0.64,-0.4799 -1.0967,-0.4799 h -1.2696 v 4.0994 h 1.2696 c 0.4567,0 0.8232,-0.1635 1.0967,-0.4901 0.2764,-0.3265 0.413,-0.7166 0.413,-1.1699 z" style="fill:#00a5b7;fill-rule:evenodd" id="path9"/>
      </g>
      <path d="m 303.9934,405.2044 0.9388,-0.0933 c 0.0567,0.3141 0.1698,0.5437 0.3418,0.6914 0.1718,0.1474 0.404,0.2208 0.6957,0.2208 0.3084,0 0.5414,-0.0655 0.6979,-0.1964 0.1564,-0.131 0.2352,-0.2841 0.2352,-0.4595 0,-0.1131 -0.0331,-0.2087 -0.0986,-0.2886 -0.0655,-0.0788 -0.1809,-0.1474 -0.3453,-0.2052 -0.1119,-0.04 -0.3671,-0.1086 -0.7667,-0.2087 -0.5137,-0.1286 -0.8742,-0.2863 -1.0817,-0.4736 -0.292,-0.2631 -0.4374,-0.5837 -0.4374,-0.9621 0,-0.2432 0.0689,-0.4717 0.2052,-0.6837 0.1378,-0.2118 0.3353,-0.3728 0.5939,-0.4839 0.2585,-0.1108 0.5692,-0.1664 0.9354,-0.1664 0.5958,0 1.0451,0.1321 1.3459,0.3974 0.3019,0.2651 0.4595,0.618 0.4751,1.0608 l -0.9655,0.0334 c -0.0411,-0.2463 -0.1287,-0.4229 -0.2631,-0.5306 -0.134,-0.1075 -0.3362,-0.1619 -0.6046,-0.1619 -0.2775,0 -0.4949,0.0575 -0.6514,0.1729 -0.1009,0.0746 -0.1519,0.1732 -0.1519,0.2977 0,0.1131 0.0476,0.2094 0.1431,0.2894 0.1208,0.1031 0.415,0.2097 0.8822,0.3208 0.4671,0.1098 0.8121,0.2251 1.0352,0.3428 0.2242,0.1187 0.3994,0.2797 0.5261,0.485 0.1264,0.2052 0.1896,0.4583 0.1896,0.7591 0,0.273 -0.0754,0.5292 -0.2273,0.7679 -0.1522,0.2384 -0.3663,0.4161 -0.6438,0.5315 -0.2775,0.1165 -0.6236,0.174 -1.0375,0.174 -0.6026,0 -1.0652,-0.1386 -1.3881,-0.4172 -0.3231,-0.2773 -0.515,-0.6823 -0.5782,-1.2138 z m 7.1917,1.5446 v -2.0064 l -1.7475,-2.7606 h 1.1284 l 1.1274,1.8873 1.0976,-1.8873 h 1.1075 l -1.7479,2.7674 v 1.9996 z m 4.1826,-1.5446 0.9388,-0.0933 c 0.0567,0.3141 0.1698,0.5437 0.3418,0.6914 0.1718,0.1474 0.404,0.2208 0.6957,0.2208 0.3084,0 0.5414,-0.0655 0.6979,-0.1964 0.1564,-0.131 0.2352,-0.2841 0.2352,-0.4595 0,-0.1131 -0.0331,-0.2087 -0.0986,-0.2886 -0.0655,-0.0788 -0.1809,-0.1474 -0.3453,-0.2052 -0.1119,-0.04 -0.3671,-0.1086 -0.7667,-0.2087 -0.5137,-0.1286 -0.8742,-0.2863 -1.0817,-0.4736 -0.292,-0.2631 -0.4374,-0.5837 -0.4374,-0.9621 0,-0.2432 0.0689,-0.4717 0.2052,-0.6837 0.1378,-0.2118 0.3353,-0.3728 0.5939,-0.4839 0.2585,-0.1108 0.5692,-0.1664 0.9354,-0.1664 0.5958,0 1.0451,0.1321 1.3459,0.3974 0.3019,0.2651 0.4595,0.618 0.4751,1.0608 l -0.9655,0.0334 c -0.0411,-0.2463 -0.1287,-0.4229 -0.2631,-0.5306 -0.134,-0.1075 -0.3362,-0.1619 -0.6046,-0.1619 -0.2775,0 -0.4949,0.0575 -0.6514,0.1729 -0.1009,0.0746 -0.1519,0.1732 -0.1519,0.2977 0,0.1131 0.0476,0.2094 0.1431,0.2894 0.1208,0.1031 0.415,0.2097 0.8822,0.3208 0.4671,0.1098 0.8121,0.2251 1.0352,0.3428 0.2242,0.1187 0.3994,0.2797 0.5261,0.485 0.1264,0.2052 0.1896,0.4583 0.1896,0.7591 0,0.273 -0.0754,0.5292 -0.2273,0.7679 -0.1522,0.2384 -0.3663,0.4161 -0.6438,0.5315 -0.2775,0.1165 -0.6236,0.174 -1.0375,0.174 -0.6026,0 -1.0652,-0.1386 -1.3881,-0.4172 -0.3231,-0.2773 -0.515,-0.6823 -0.5782,-1.2138 z m 7.012,1.5446 v -3.9614 h -1.4114 v -0.8056 h 3.7817 v 0.8056 h -1.4048 v 3.9614 z m 4.2415,0 v -4.767 h 3.5286 v 0.8056 h -2.5634 v 1.0584 h 2.3836 v 0.8056 h -2.3836 v 1.2918 h 2.6566 v 0.8056 z m 5.6738,0 v -4.767 h 1.4457 l 0.8546,3.2513 0.8445,-3.2513 h 1.4491 v 4.767 h -0.8921 l -0.003,-3.7528 -0.9397,3.7528 h -0.9278 l -0.9354,-3.7528 -0.003,3.7528 z m 8.6559,0 v -4.767 h 1.5435 c 0.5847,0 0.9654,0.0232 1.1429,0.0708 0.273,0.0723 0.5014,0.2276 0.6857,0.4672 0.1842,0.2398 0.2764,0.5493 0.2764,0.9289 0,0.2928 -0.0533,0.538 -0.1588,0.7378 -0.1066,0.1999 -0.2406,0.3564 -0.4039,0.4706 -0.163,0.1131 -0.3294,0.1885 -0.4981,0.2253 -0.2298,0.0454 -0.5615,0.0686 -0.9966,0.0686 h -0.6259 v 1.7978 z m 0.9652,-3.9614 v 1.358 h 0.525 c 0.3784,0 0.6304,-0.0255 0.758,-0.0754 0.1275,-0.0499 0.2273,-0.1275 0.2996,-0.2352 0.072,-0.1066 0.1085,-0.2296 0.1085,-0.3717 0,-0.1743 -0.051,-0.3174 -0.1519,-0.4305 -0.102,-0.1134 -0.2296,-0.1843 -0.3861,-0.2132 -0.1142,-0.021 -0.3441,-0.032 -0.6902,-0.032 z m 5.9414,3.9614 -1.7056,-4.767 h 1.0432 l 1.2106,3.5285 1.1617,-3.5285 h 1.0253 l -1.6954,4.767 z m 5.5395,0 v -3.9614 h -1.4114 v -0.8056 h 3.7817 v 0.8056 h -1.4048 v 3.9614 z m 3.4903,0 v -0.9122 h 0.9122 v 0.9122 z m 4.9861,0 v -4.7271 h 0.9652 v 3.9215 h 2.3905 v 0.8056 z m 5.8646,0 v -3.9614 h -1.4114 v -0.8056 h 3.7817 v 0.8056 h -1.4048 v 3.9614 z m 4.2415,-4.767 h 1.7555 c 0.396,0 0.6979,0.0297 0.9054,0.0909 0.2786,0.082 0.5182,0.2285 0.7169,0.4394 0.1998,0.2098 0.3506,0.4672 0.4549,0.7722 0.1032,0.3041 0.1554,0.6803 0.1554,1.1265 0,0.3928 -0.0488,0.7302 -0.1466,1.0142 -0.1188,0.3472 -0.2886,0.6282 -0.5094,0.8422 -0.1664,0.163 -0.3917,0.2897 -0.6746,0.3807 -0.2118,0.0677 -0.495,0.1009 -0.8499,0.1009 h -1.8076 z m 0.9652,0.8056 v 3.1558 h 0.7157 c 0.2676,0 0.4607,-0.0156 0.5794,-0.0457 0.1565,-0.0388 0.2852,-0.1051 0.3873,-0.1984 0.1031,-0.0933 0.1865,-0.2463 0.2508,-0.4595 0.0655,-0.2132 0.0975,-0.5048 0.0975,-0.8733 0,-0.3683 -0.032,-0.6503 -0.0975,-0.8479 -0.0643,-0.1973 -0.1553,-0.3506 -0.2718,-0.4615 -0.1165,-0.11 -0.2642,-0.1854 -0.4439,-0.2242 -0.1333,-0.03 -0.3963,-0.0453 -0.7869,-0.0453 z m 5.076,3.9614 v -0.9122 h 0.9122 v 0.9122 z" style="fill:#1b1918;fill-rule:evenodd" id="path12"/>
    </g>
  </g>
</svg>